<svg width="48" height="48" viewBox="0 0 48 48" fill="none" xmlns="http://www.w3.org/2000/svg">
    <rect width="48" height="48" rx="12" fill="#647C64"/>
    <path d="M32 16H16C14.8954 16 14 16.8954 14 18V30C14 31.1046 14.8954 32 16 32H32C33.1046 32 34 31.1046 34 30V18C34 16.8954 33.1046 16 32 16Z" stroke="white" stroke-width="2"/>
    <path d="M17 28H19M29 28H31" stroke="white" stroke-width="2" stroke-linecap="round"/>
    <path d="M14 22H34" stroke="white" stroke-width="2"/>
    <path d="M24 12C26.2091 12 28 13.7909 28 16H20C20 13.7909 21.7909 12 24 12Z" fill="white"/>
    <path d="M24 8C28.4183 8 32 11.5817 32 16H16C16 11.5817 19.5817 8 24 8Z" fill="white"/>
</svg> 